<svg viewBox="0 0 400 300" xmlns="http://www.w3.org/2000/svg"><path d="m292 155.28s14.83-2.4 13.83 6.67h-13.83z" fill="#f4a28c"/><path d="m259.08 138.78-4.48 21.75h25.16l-3.43-25z" fill="#c9c9c9"/><path d="m217.47 68.57h99.81v67.79h-99.81z" fill="#24285b"/><path d="m252.54 113.39h31.4v2.95h-31.4z" fill="#68e1fd"/><path d="m266.53 121.13h31.4v2.95h-31.4z" fill="#ffd200"/><path d="m217.47 130.53h99.81v12.83h-99.81z" fill="#e6e6e6"/><path d="m244.98 106.26h26.35v2.95h-26.35z" fill="#68e1fd"/><path d="m276.81 106.26h26.35v2.95h-26.35z" fill="#68e1fd"/><path d="m252.54 98.05h23.56v2.95h-23.56z" fill="#ffd200"/><path d="m282.23 98.05h23.56v2.95h-23.56z" fill="#ffd200"/><path d="m235.21 113.39h11.81v2.95h-11.81z" fill="#fff"/><path d="m246.97 121.13h11.81v2.95h-11.81z" fill="#fff"/><path d="m227.65 106.26h11.81v2.95h-11.81z" fill="#fff"/><path d="m230.51 92.37s48.76-4.9 38 51l3.71 13.63-15.22-8.26 1.22-5.36h-8.06z" opacity=".14"/><circle cx="230.51" cy="75.23" fill="#68e1fd" r="1.39"/><circle cx="234.41" cy="75.23" fill="#ffd200" r="1.39"/><path d="m227.65 83.83h11.81v2.95h-11.81z" fill="#fff"/><path d="m235.21 91.21h11.81v2.95h-11.81z" fill="#fff"/><path d="m252.54 91.21h23.56v2.95h-23.56z" fill="#ffd200"/><path d="m282.23 91.21h23.56v2.95h-23.56z" fill="#ffd200"/><path d="m235.21 98.05h11.81v2.95h-11.81z" fill="#fff"/><path d="m244.18 83.83h24.33v2.95h-24.33z" fill="#68e1fd"/><path d="m273.6 83.83h17.27v2.95h-17.27z" fill="#68e1fd"/><circle cx="268.51" cy="136.49" fill="#a5a5a5" r="3.71"/><path d="m77.14 157.03h50.17v3.5h-50.17z" fill="#c9c9c9"/><path d="m97.14 155.28s-14.83-2.4-13.83 6.67h13.83z" fill="#f4a28c"/><path d="m124.72 138.78-4.48 21.75h25.16l-3.43-25z" fill="#c9c9c9"/><path d="m78.93 68.57h99.81v67.79h-99.81z" fill="#24285b"/><path d="m114 113.39h31.4v2.95h-31.4z" fill="#68e1fd"/><path d="m78.93 130.53h99.81v12.83h-99.81z" fill="#e6e6e6"/><path d="m106.44 106.26h26.35v2.95h-26.35z" fill="#68e1fd"/><path d="m114 98.05h23.56v2.95h-23.56z" fill="#ffd200"/><path d="m96.67 113.39h11.81v2.95h-11.81z" fill="#fff"/><path d="m108.43 121.13h11.81v2.95h-11.81z" fill="#fff"/><path d="m89.11 106.26h11.81v2.95h-11.81z" fill="#fff"/><circle cx="87.84" cy="75.23" fill="#fff" r="1.39"/><circle cx="91.97" cy="75.23" fill="#68e1fd" r="1.39"/><circle cx="95.87" cy="75.23" fill="#ffd200" r="1.39"/><path d="m89.11 83.83h11.81v2.95h-11.81z" fill="#fff"/><path d="m96.67 91.21h11.81v2.95h-11.81z" fill="#fff"/><path d="m114 91.21h23.56v2.95h-23.56z" fill="#ffd200"/><path d="m96.67 98.05h11.81v2.95h-11.81z" fill="#fff"/><path d="m105.64 83.83h24.33v2.95h-24.33z" fill="#68e1fd"/><ellipse cx="196.06" cy="242.16" fill="#e6e6e6" opacity=".45" rx="161.5" ry="20.93"/><path d="m171.62 90.14s-34.81 2.39-37.48 21.72c-1.48 10.74 1.46 20.45 4.37 27a7 7 0 0 1 -5.48 9.79l-35.89 5v8.35l49.94-1.48a20.69 20.69 0 0 0 20-18.87z" fill="#68e1fd"/><path d="m217.47 90.14s34.81 2.39 37.48 21.72c1.48 10.74-1.46 20.45-4.37 27a7 7 0 0 0 5.48 9.79l35.89 5v8.35l-49.95-1.53a20.7 20.7 0 0 1 -20-18.87z" fill="#68e1fd"/><path d="m171.62 90.14s-34.81 2.39-37.48 21.72c-1.48 10.74 1.46 20.45 4.37 27a7 7 0 0 1 -5.48 9.79l-35.89 5v8.35l49.94-1.48a20.69 20.69 0 0 0 20-18.87z" fill="#fff" opacity=".46"/><path d="m217.47 90.14s34.81 2.39 37.48 21.72c1.48 10.74-1.46 20.45-4.37 27a7 7 0 0 0 5.48 9.79l35.89 5v8.35l-49.95-1.53a20.7 20.7 0 0 1 -20-18.87z" fill="#fff" opacity=".46"/><path d="m63.81 168.25h262.5v73.92h-262.5z" fill="#c9c9c9"/><path d="m63.81 160.53h262.5v18.07h-262.5z" fill="#e6e6e6"/><path d="m191.33 90.14 4.25-18.53s.14-8.68 5.71-6.66 7.24 12.08 4.24 15.48-5-1.24-5-1.24v10.25z" fill="#f4a28c"/><path d="m264.8 161.15s-23.07 4.91-13.43 14.22 4.32 22.4-2.36 26.18-34.35 8.34-25.51 40.23h-31.19l-2.3-17-20-21.12 8.74-20.37 24.59-33.43 16.66 13.81 9.12-3.14z" opacity=".1"/><path d="m185.78 89.29s-34.7-3.09-39.23 20.34 27.76 67.65 27.76 67.65l45-1.75s69.91-98.2-33.53-86.24z" fill="#68e1fd"/><path d="m190 224.75s2 2.64.69 5.14.58 4.62 2.56 2.88 2.8-9 2.8-9l-4.47-2.61z" fill="#68e1fd"/><path d="m174.31 177.28s-3 15.75 3.75 16.5 54.5 2.88 62.5-3.81 6-15.94-21.25-14.44z" fill="#24285b"/><path d="m173.92 180s-20.86 16.3-10.11 28.3 26.25 19 26.25 19l2.25-5.75s-32.5-25.25-1.75-30.25z" fill="#24285b"/><rect fill="#ffd200" height="45.76" rx="22.88" width="58.03" x="165.47" y="126.95"/><path d="m188.52 149.83h11.42v45.83h-11.42z" fill="#ffd200"/><path d="m188.52 149.83h11.42v45.83h-11.42z" opacity=".08"/><path d="m171.62 189.97h45.85v13.69h-45.85z" fill="#ffd200"/><path d="m192.64 77.68.07-4.39a7.52 7.52 0 0 0 -2.14-5.48 2.8 2.8 0 0 1 -.48-3.94c2.3-3.29 4.24-1.16 6.56-4.07s4.07-3.48 6.78 0 4.84-.58 6.39 3.68.19 6.39-5.81 6.78c-5.1.33-3.52 6.11-8.25 9.15a2 2 0 0 1 -3.12-1.73z" fill="#24285b"/><path d="m190.6 203.65h7.28v31.63h-7.28z" fill="#ffd200"/><path d="m190.6 203.65h7.28v31.63h-7.28z" opacity=".08"/><path d="m190.6 235.28-14.08 13h36.54l-15.19-13z" fill="#ffd200"/><path d="m286.14 185.03h27v46.75h-27z" fill="#a5a5a5"/><g fill="#e6e6e6"><path d="m273.48 178.6h6.33v63.57h-6.33z"/><path d="m319.98 178.6h6.33v63.57h-6.33z"/><path d="m279.19 231.78h47.13v10.38h-47.13z"/><path d="m63.81 178.6h13.33v63.57h-13.33z"/></g><path d="m77.14 224.19h38v7.59h-38z" fill="#a5a5a5" opacity=".42"/><path d="m77.14 231.48h57.24v10.68h-57.24z" fill="#a5a5a5"/><path d="m135.06 83.83h17.27v2.95h-17.27z" fill="#68e1fd"/><circle cx="132.55" cy="136.49" fill="#a5a5a5" r="3.71"/><circle cx="226.38" cy="75.23" fill="#fff" r="1.39"/><path d="m296.16 53.5h38.75v26.64h-38.75z" fill="#ffd200"/><path d="m310.33 72.05a.88.88 0 0 1 -.55-.19l-5.78-4.59a.91.91 0 0 1 -.34-.7.92.92 0 0 1 .33-.71l5.81-4.67a.9.9 0 0 1 1.13 1.4l-4.94 4 4.93 3.89a.89.89 0 0 1 .15 1.26.88.88 0 0 1 -.74.31z" fill="#fff"/><path d="m320.85 72.05a.88.88 0 0 1 -.7-.34.89.89 0 0 1 .15-1.26l4.92-3.89-4.93-4a.9.9 0 1 1 1.12-1.4l5.82 4.67a.92.92 0 0 1 .33.71.91.91 0 0 1 -.34.7l-5.81 4.59a.9.9 0 0 1 -.56.22z" fill="#fff"/><path d="m313.16 72.05a.87.87 0 0 1 -.38-.08.9.9 0 0 1 -.44-1.19l4.23-9.27a.9.9 0 0 1 1.64.75l-4.21 9.27a.88.88 0 0 1 -.84.52z" fill="#fff"/><path d="m94 212.87s-9.21-2.52-11.22-11.09c0 0 14.28-2.88 14.68 11.85z" fill="#68e1fd" opacity=".58"/><path d="m95.08 212s-6.44-10.18-.77-19.69c0 0 10.85 6.89 6 19.71z" fill="#68e1fd" opacity=".73"/><path d="m96.74 212s3.4-10.74 13.68-12.78c0 0 1.92 7-6.66 12.81z" fill="#68e1fd"/><path d="m90.06 211.72 1.86 12.78 11.76.05 1.74-12.76z" fill="#24285b"/><circle cx="304.21" cy="195.73" fill="#fff" r="3.46"/><path d="m290.75 203.65h18.83v23.63h-18.83z" fill="#fff" opacity=".18"/></svg>